<?xml version="1.0" encoding="UTF-8" standalone="no"?>
<!-- Created with Inkscape (http://www.inkscape.org/) -->

<svg
   xmlns:dc="http://purl.org/dc/elements/1.1/"
   xmlns:cc="http://creativecommons.org/ns#"
   xmlns:rdf="http://www.w3.org/1999/02/22-rdf-syntax-ns#"
   xmlns:svg="http://www.w3.org/2000/svg"
   xmlns="http://www.w3.org/2000/svg"
   xmlns:sodipodi="http://sodipodi.sourceforge.net/DTD/sodipodi-0.dtd"
   xmlns:inkscape="http://www.inkscape.org/namespaces/inkscape"
   width="400"
   height="400"
   id="svg3751"
   version="1.1"
   inkscape:version="0.48.2 r9819"
   sodipodi:docname="Panzer.svg">
  <defs
     id="defs3753" />
  <sodipodi:namedview
     id="base"
     pagecolor="#000000"
     bordercolor="#666666"
     borderopacity="1.0"
     inkscape:pageopacity="0"
     inkscape:pageshadow="2"
     inkscape:zoom="0.945"
     inkscape:cx="-32.804233"
     inkscape:cy="210.03602"
     inkscape:document-units="px"
     inkscape:current-layer="layer1"
     showgrid="false"
     inkscape:window-width="1280"
     inkscape:window-height="620"
     inkscape:window-x="0"
     inkscape:window-y="0"
     inkscape:window-maximized="0" />
  <metadata
     id="metadata3756">
    <rdf:RDF>
      <cc:Work
         rdf:about="">
        <dc:format>image/svg+xml</dc:format>
        <dc:type
           rdf:resource="http://purl.org/dc/dcmitype/StillImage" />
        <dc:title />
      </cc:Work>
    </rdf:RDF>
  </metadata>
  <g
     inkscape:label="Ebene 1"
     inkscape:groupmode="layer"
     id="layer1"
     transform="translate(0,-652.36218)">
    <path
       style="fill:#53e1db;fill-opacity:1;stroke:none;stroke-width:0.90032566000000003px;stroke-linecap:butt;stroke-linejoin:miter;stroke-opacity:1"
       d="m 0,1017.3622 300,0 0,-235.75639 -100,-129.69381 -100,0 L 0,781.60581 z"
       id="path3761"
       inkscape:connector-curvature="0"
       sodipodi:nodetypes="ccccccc" />
    <rect
       style="fill:#5300db;fill-opacity:1;stroke:none"
       id="rect3765"
       width="300"
       height="50"
       x="100"
       y="702.36218" />
    <path
       sodipodi:type="arc"
       style="fill:#5300db;fill-opacity:1;stroke:none"
       id="path3767"
       sodipodi:cx="228.04233"
       sodipodi:cy="324.86774"
       sodipodi:rx="31.21693"
       sodipodi:ry="29.629629"
       d="m 259.25926,324.86774 c 0,16.36399 -13.9763,29.62963 -31.21693,29.62963 -17.24064,0 -31.21693,-13.26564 -31.21693,-29.62963 0,-16.364 13.97629,-29.62963 31.21693,-29.62963 17.24063,0 31.21693,13.26563 31.21693,29.62963 z"
       transform="matrix(1.1211865,0,0,1.18125,-5.6779785,633.61217)" />
    <path
       sodipodi:type="arc"
       style="fill:#5300db;fill-opacity:1;stroke:none"
       id="path3769"
       sodipodi:cx="84.126984"
       sodipodi:cy="324.33862"
       sodipodi:rx="37.566139"
       sodipodi:ry="34.391533"
       d="m 121.69312,324.33862 c 0,18.99392 -16.81893,34.39154 -37.566136,34.39154 -20.747206,0 -37.56614,-15.39762 -37.56614,-34.39154 0,-18.99392 16.818934,-34.39153 37.56614,-34.39153 20.747206,0 37.566136,15.39761 37.566136,34.39153 z"
       transform="matrix(0.9316901,0,0,1.0176924,-28.380278,687.28523)" />
  </g>
</svg>
