<?xml version="1.0" encoding="utf-8"?>
<!-- Generator: Adobe Illustrator 15.0.0, SVG Export Plug-In . SVG Version: 6.00 Build 0)  -->
<!DOCTYPE svg PUBLIC "-//W3C//DTD SVG 1.1//EN" "http://www.w3.org/Graphics/SVG/1.1/DTD/svg11.dtd">
<svg version="1.1" xmlns="http://www.w3.org/2000/svg" xmlns:xlink="http://www.w3.org/1999/xlink" x="0px" y="0px" width="100px"
	 height="100px" viewBox="0 0 100 100" enable-background="new 0 0 100 100" xml:space="preserve">
<g id="Layer_2">
</g>
<g id="svg2" xmlns:osb="http://www.openswatchbook.org/uri/2009/osb" xmlns:sodipodi="http://sodipodi.sourceforge.net/DTD/sodipodi-0.dtd" sodipodi:docname="Flugzeug.svg" inkscape:version="0.48.2 r9819" inkscape:export-filename="/Users/fabio/Desktop/swissdefcon/CS108/bilder/Flugzeug.png" inkscape:export-xdpi="2700" inkscape:export-ydpi="2700" xmlns:svg="http://www.w3.org/2000/svg" xmlns:rdf="http://www.w3.org/1999/02/22-rdf-syntax-ns#" xmlns:cc="http://creativecommons.org/ns#" xmlns:dc="http://purl.org/dc/elements/1.1/" xmlns:inkscape="http://www.inkscape.org/namespaces/inkscape">
	<defs>
		
		
			<inkscape:perspective  inkscape:vp_z="500 : 250 : 1" id="perspective3017" sodipodi:type="inkscape:persp3d" inkscape:vp_x="0 : 250 : 1" inkscape:persp3d-origin="250 : 166.66667 : 1" inkscape:vp_y="0 : 1000 : 0">
			</inkscape:perspective>
	</defs>
	
		<sodipodi:namedview  inkscape:showpageshadow="false" id="base" bordercolor="#666666" pagecolor="#ffffff" inkscape:window-maximized="0" borderopacity="1.0" inkscape:cx="-31.329923" inkscape:pageopacity="0.0" inkscape:pageshadow="2" inkscape:zoom="1" inkscape:cy="151.58045" inkscape:document-units="px" inkscape:current-layer="layer1" showgrid="false" inkscape:window-width="1280" inkscape:window-height="620" inkscape:window-x="0" inkscape:window-y="0" showborder="true">
		</sodipodi:namedview>
	<polyline fill="#152DFF" points="50.5,0 44.5,28.5 39.25,28.75 35.5,48.5 33.5,49.5 32.25,44.25 27.5,52.75 26.75,46.75 0.5,72.75 
		34.5,78 34.75,82.5 18.75,93.5 22.25,99 41.75,91.25 42,93 47,93.25 49,89.5 49.75,92.5 50.75,92.5 51.75,89.5 52.5,92.75 
		58.75,92.75 59.5,91 78.25,99 82.5,95 65.25,83.5 65.5,77.75 100,72.5 74,46.75 73,53.25 69,44.25 68.25,50.25 61,28.25 54.5,28.5 
		50.5,0 	"/>
</g>
</svg>
